<svg xmlns="http://www.w3.org/2000/svg" xmlns:xlink="http://www.w3.org/1999/xlink" width="500" zoomAndPan="magnify" viewBox="0 0 375 374.999991" height="500" preserveAspectRatio="xMidYMid meet" version="1.0"><defs><clipPath id="ec3c51149c"><path d="M 206 90 L 255 90 L 255 133 L 206 133 Z M 206 90 " clip-rule="nonzero"/></clipPath><clipPath id="c49ba5985c"><path d="M 20.128906 77.722656 L 258.941406 -11.683594 L 374.644531 297.367188 L 135.828125 386.773438 Z M 20.128906 77.722656 " clip-rule="nonzero"/></clipPath><clipPath id="cef790358a"><path d="M 20.128906 77.722656 L 258.941406 -11.683594 L 374.644531 297.367188 L 135.828125 386.773438 Z M 20.128906 77.722656 " clip-rule="nonzero"/></clipPath><clipPath id="6641a63699"><path d="M 20.128906 77.722656 L 258.941406 -11.683594 L 374.644531 297.367188 L 135.828125 386.773438 Z M 20.128906 77.722656 " clip-rule="nonzero"/></clipPath><clipPath id="7a3d06db22"><path d="M 185 150 L 287 150 L 287 256 L 185 256 Z M 185 150 " clip-rule="nonzero"/></clipPath><clipPath id="42da637053"><path d="M 20.128906 77.722656 L 258.941406 -11.683594 L 374.644531 297.367188 L 135.828125 386.773438 Z M 20.128906 77.722656 " clip-rule="nonzero"/></clipPath><clipPath id="795020faf0"><path d="M 20.128906 77.722656 L 258.941406 -11.683594 L 374.644531 297.367188 L 135.828125 386.773438 Z M 20.128906 77.722656 " clip-rule="nonzero"/></clipPath><clipPath id="add28a2f97"><path d="M 20.128906 77.722656 L 258.941406 -11.683594 L 374.644531 297.367188 L 135.828125 386.773438 Z M 20.128906 77.722656 " clip-rule="nonzero"/></clipPath><clipPath id="8e30388870"><path d="M 192 250 L 239 250 L 239 290 L 192 290 Z M 192 250 " clip-rule="nonzero"/></clipPath><clipPath id="15b96523a2"><path d="M 20.128906 77.722656 L 258.941406 -11.683594 L 374.644531 297.367188 L 135.828125 386.773438 Z M 20.128906 77.722656 " clip-rule="nonzero"/></clipPath><clipPath id="817f4d485e"><path d="M 20.128906 77.722656 L 258.941406 -11.683594 L 374.644531 297.367188 L 135.828125 386.773438 Z M 20.128906 77.722656 " clip-rule="nonzero"/></clipPath><clipPath id="d536d2d1b5"><path d="M 20.128906 77.722656 L 258.941406 -11.683594 L 374.644531 297.367188 L 135.828125 386.773438 Z M 20.128906 77.722656 " clip-rule="nonzero"/></clipPath><clipPath id="4b3105e097"><path d="M 129 37 L 294 37 L 294 191 L 129 191 Z M 129 37 " clip-rule="nonzero"/></clipPath><clipPath id="461296f1ec"><path d="M 20.128906 77.722656 L 258.941406 -11.683594 L 374.644531 297.367188 L 135.828125 386.773438 Z M 20.128906 77.722656 " clip-rule="nonzero"/></clipPath><clipPath id="55bb79446c"><path d="M 20.128906 77.722656 L 258.941406 -11.683594 L 374.644531 297.367188 L 135.828125 386.773438 Z M 20.128906 77.722656 " clip-rule="nonzero"/></clipPath><clipPath id="45df34e6c3"><path d="M 20.128906 77.722656 L 258.941406 -11.683594 L 374.644531 297.367188 L 135.828125 386.773438 Z M 20.128906 77.722656 " clip-rule="nonzero"/></clipPath><clipPath id="eac02eb2b1"><path d="M 206 89 L 252 89 L 252 109 L 206 109 Z M 206 89 " clip-rule="nonzero"/></clipPath><clipPath id="9ee1e19605"><path d="M 20.128906 77.722656 L 258.941406 -11.683594 L 374.644531 297.367188 L 135.828125 386.773438 Z M 20.128906 77.722656 " clip-rule="nonzero"/></clipPath><clipPath id="5589450304"><path d="M 20.128906 77.722656 L 258.941406 -11.683594 L 374.644531 297.367188 L 135.828125 386.773438 Z M 20.128906 77.722656 " clip-rule="nonzero"/></clipPath><clipPath id="c6fcb90ca5"><path d="M 20.128906 77.722656 L 258.941406 -11.683594 L 374.644531 297.367188 L 135.828125 386.773438 Z M 20.128906 77.722656 " clip-rule="nonzero"/></clipPath><clipPath id="0046081036"><path d="M 222 110 L 254 110 L 254 133 L 222 133 Z M 222 110 " clip-rule="nonzero"/></clipPath><clipPath id="8b29f93b0c"><path d="M 20.128906 77.722656 L 258.941406 -11.683594 L 374.644531 297.367188 L 135.828125 386.773438 Z M 20.128906 77.722656 " clip-rule="nonzero"/></clipPath><clipPath id="aafd344140"><path d="M 20.128906 77.722656 L 258.941406 -11.683594 L 374.644531 297.367188 L 135.828125 386.773438 Z M 20.128906 77.722656 " clip-rule="nonzero"/></clipPath><clipPath id="d10a609c4b"><path d="M 20.128906 77.722656 L 258.941406 -11.683594 L 374.644531 297.367188 L 135.828125 386.773438 Z M 20.128906 77.722656 " clip-rule="nonzero"/></clipPath><clipPath id="8bb0fff6bb"><path d="M 226 114 L 254 114 L 254 133 L 226 133 Z M 226 114 " clip-rule="nonzero"/></clipPath><clipPath id="2ebd4f9fdd"><path d="M 20.128906 77.722656 L 258.941406 -11.683594 L 374.644531 297.367188 L 135.828125 386.773438 Z M 20.128906 77.722656 " clip-rule="nonzero"/></clipPath><clipPath id="5727baf738"><path d="M 20.128906 77.722656 L 258.941406 -11.683594 L 374.644531 297.367188 L 135.828125 386.773438 Z M 20.128906 77.722656 " clip-rule="nonzero"/></clipPath><clipPath id="4a1977dbc6"><path d="M 20.128906 77.722656 L 258.941406 -11.683594 L 374.644531 297.367188 L 135.828125 386.773438 Z M 20.128906 77.722656 " clip-rule="nonzero"/></clipPath><clipPath id="b21315483c"><path d="M 129 64 L 213 64 L 213 191 L 129 191 Z M 129 64 " clip-rule="nonzero"/></clipPath><clipPath id="4d1089d2b8"><path d="M 20.128906 77.722656 L 258.941406 -11.683594 L 374.644531 297.367188 L 135.828125 386.773438 Z M 20.128906 77.722656 " clip-rule="nonzero"/></clipPath><clipPath id="0a7c43dd43"><path d="M 20.128906 77.722656 L 258.941406 -11.683594 L 374.644531 297.367188 L 135.828125 386.773438 Z M 20.128906 77.722656 " clip-rule="nonzero"/></clipPath><clipPath id="bf15bdbbcb"><path d="M 20.128906 77.722656 L 258.941406 -11.683594 L 374.644531 297.367188 L 135.828125 386.773438 Z M 20.128906 77.722656 " clip-rule="nonzero"/></clipPath><clipPath id="f60c26ebf7"><path d="M 244 38 L 294 38 L 294 169 L 244 169 Z M 244 38 " clip-rule="nonzero"/></clipPath><clipPath id="99b2dc6f26"><path d="M 20.128906 77.722656 L 258.941406 -11.683594 L 374.644531 297.367188 L 135.828125 386.773438 Z M 20.128906 77.722656 " clip-rule="nonzero"/></clipPath><clipPath id="078a4ddcf6"><path d="M 20.128906 77.722656 L 258.941406 -11.683594 L 374.644531 297.367188 L 135.828125 386.773438 Z M 20.128906 77.722656 " clip-rule="nonzero"/></clipPath><clipPath id="57562ff7d2"><path d="M 20.128906 77.722656 L 258.941406 -11.683594 L 374.644531 297.367188 L 135.828125 386.773438 Z M 20.128906 77.722656 " clip-rule="nonzero"/></clipPath><clipPath id="3222ca0d63"><path d="M 185 163 L 214 163 L 214 253 L 185 253 Z M 185 163 " clip-rule="nonzero"/></clipPath><clipPath id="01ccdf2bff"><path d="M 20.128906 77.722656 L 258.941406 -11.683594 L 374.644531 297.367188 L 135.828125 386.773438 Z M 20.128906 77.722656 " clip-rule="nonzero"/></clipPath><clipPath id="6cc9708e99"><path d="M 20.128906 77.722656 L 258.941406 -11.683594 L 374.644531 297.367188 L 135.828125 386.773438 Z M 20.128906 77.722656 " clip-rule="nonzero"/></clipPath><clipPath id="270a91c3f4"><path d="M 20.128906 77.722656 L 258.941406 -11.683594 L 374.644531 297.367188 L 135.828125 386.773438 Z M 20.128906 77.722656 " clip-rule="nonzero"/></clipPath><clipPath id="6164f51c3d"><path d="M 228 150 L 287 150 L 287 256 L 228 256 Z M 228 150 " clip-rule="nonzero"/></clipPath><clipPath id="ef6ad87ab5"><path d="M 20.128906 77.722656 L 258.941406 -11.683594 L 374.644531 297.367188 L 135.828125 386.773438 Z M 20.128906 77.722656 " clip-rule="nonzero"/></clipPath><clipPath id="e9d1806664"><path d="M 20.128906 77.722656 L 258.941406 -11.683594 L 374.644531 297.367188 L 135.828125 386.773438 Z M 20.128906 77.722656 " clip-rule="nonzero"/></clipPath><clipPath id="785f1df9e7"><path d="M 20.128906 77.722656 L 258.941406 -11.683594 L 374.644531 297.367188 L 135.828125 386.773438 Z M 20.128906 77.722656 " clip-rule="nonzero"/></clipPath><clipPath id="07aabc8260"><path d="M 192 255 L 241 255 L 241 290 L 192 290 Z M 192 255 " clip-rule="nonzero"/></clipPath><clipPath id="bbea76796b"><path d="M 20.128906 77.722656 L 258.941406 -11.683594 L 374.644531 297.367188 L 135.828125 386.773438 Z M 20.128906 77.722656 " clip-rule="nonzero"/></clipPath><clipPath id="62f0d4f4c2"><path d="M 20.128906 77.722656 L 258.941406 -11.683594 L 374.644531 297.367188 L 135.828125 386.773438 Z M 20.128906 77.722656 " clip-rule="nonzero"/></clipPath><clipPath id="778c59692f"><path d="M 20.128906 77.722656 L 258.941406 -11.683594 L 374.644531 297.367188 L 135.828125 386.773438 Z M 20.128906 77.722656 " clip-rule="nonzero"/></clipPath><clipPath id="21f836f675"><path d="M 192 250 L 206 250 L 206 290 L 192 290 Z M 192 250 " clip-rule="nonzero"/></clipPath><clipPath id="27c8acf048"><path d="M 20.128906 77.722656 L 258.941406 -11.683594 L 374.644531 297.367188 L 135.828125 386.773438 Z M 20.128906 77.722656 " clip-rule="nonzero"/></clipPath><clipPath id="acc2806eef"><path d="M 20.128906 77.722656 L 258.941406 -11.683594 L 374.644531 297.367188 L 135.828125 386.773438 Z M 20.128906 77.722656 " clip-rule="nonzero"/></clipPath><clipPath id="fc5627c2ac"><path d="M 20.128906 77.722656 L 258.941406 -11.683594 L 374.644531 297.367188 L 135.828125 386.773438 Z M 20.128906 77.722656 " clip-rule="nonzero"/></clipPath><clipPath id="74f07f05c1"><path d="M 195 84 L 259 84 L 259 137 L 195 137 Z M 195 84 " clip-rule="nonzero"/></clipPath><clipPath id="541bf95fa4"><path d="M 20.128906 77.722656 L 258.941406 -11.683594 L 374.644531 297.367188 L 135.828125 386.773438 Z M 20.128906 77.722656 " clip-rule="nonzero"/></clipPath><clipPath id="9e18a2dfc5"><path d="M 20.128906 77.722656 L 258.941406 -11.683594 L 374.644531 297.367188 L 135.828125 386.773438 Z M 20.128906 77.722656 " clip-rule="nonzero"/></clipPath><clipPath id="081fe7f503"><path d="M 20.128906 77.722656 L 258.941406 -11.683594 L 374.644531 297.367188 L 135.828125 386.773438 Z M 20.128906 77.722656 " clip-rule="nonzero"/></clipPath><clipPath id="d28bc01261"><path d="M 109 32 L 298 32 L 298 369 L 109 369 Z M 109 32 " clip-rule="nonzero"/></clipPath><clipPath id="c72d5b9fd7"><path d="M 20.128906 77.722656 L 258.941406 -11.683594 L 374.644531 297.367188 L 135.828125 386.773438 Z M 20.128906 77.722656 " clip-rule="nonzero"/></clipPath><clipPath id="1492276fd0"><path d="M 20.128906 77.722656 L 258.941406 -11.683594 L 374.644531 297.367188 L 135.828125 386.773438 Z M 20.128906 77.722656 " clip-rule="nonzero"/></clipPath><clipPath id="38a75117c8"><path d="M 20.128906 77.722656 L 258.941406 -11.683594 L 374.644531 297.367188 L 135.828125 386.773438 Z M 20.128906 77.722656 " clip-rule="nonzero"/></clipPath><clipPath id="e13f0086ee"><path d="M 218 6 L 270 6 L 270 33 L 218 33 Z M 218 6 " clip-rule="nonzero"/></clipPath><clipPath id="2c02085523"><path d="M 20.128906 77.722656 L 258.941406 -11.683594 L 374.644531 297.367188 L 135.828125 386.773438 Z M 20.128906 77.722656 " clip-rule="nonzero"/></clipPath><clipPath id="f52e99b407"><path d="M 20.128906 77.722656 L 258.941406 -11.683594 L 374.644531 297.367188 L 135.828125 386.773438 Z M 20.128906 77.722656 " clip-rule="nonzero"/></clipPath><clipPath id="cb77a9e967"><path d="M 20.128906 77.722656 L 258.941406 -11.683594 L 374.644531 297.367188 L 135.828125 386.773438 Z M 20.128906 77.722656 " clip-rule="nonzero"/></clipPath><clipPath id="b3e8d602cd"><path d="M 134 28 L 171 28 L 171 63 L 134 63 Z M 134 28 " clip-rule="nonzero"/></clipPath><clipPath id="c46124121b"><path d="M 20.128906 77.722656 L 258.941406 -11.683594 L 374.644531 297.367188 L 135.828125 386.773438 Z M 20.128906 77.722656 " clip-rule="nonzero"/></clipPath><clipPath id="82b381219d"><path d="M 20.128906 77.722656 L 258.941406 -11.683594 L 374.644531 297.367188 L 135.828125 386.773438 Z M 20.128906 77.722656 " clip-rule="nonzero"/></clipPath><clipPath id="7a2c6783d8"><path d="M 20.128906 77.722656 L 258.941406 -11.683594 L 374.644531 297.367188 L 135.828125 386.773438 Z M 20.128906 77.722656 " clip-rule="nonzero"/></clipPath><clipPath id="c90a8e1fd6"><path d="M 232 55 L 268 55 L 268 75 L 232 75 Z M 232 55 " clip-rule="nonzero"/></clipPath><clipPath id="864b91ecdd"><path d="M 20.128906 77.722656 L 258.941406 -11.683594 L 374.644531 297.367188 L 135.828125 386.773438 Z M 20.128906 77.722656 " clip-rule="nonzero"/></clipPath><clipPath id="0b3ab04a3e"><path d="M 20.128906 77.722656 L 258.941406 -11.683594 L 374.644531 297.367188 L 135.828125 386.773438 Z M 20.128906 77.722656 " clip-rule="nonzero"/></clipPath><clipPath id="7e90ace7d7"><path d="M 20.128906 77.722656 L 258.941406 -11.683594 L 374.644531 297.367188 L 135.828125 386.773438 Z M 20.128906 77.722656 " clip-rule="nonzero"/></clipPath><clipPath id="47e3a237a9"><path d="M 172 65 L 210 65 L 210 88 L 172 88 Z M 172 65 " clip-rule="nonzero"/></clipPath><clipPath id="82c0dc1c9e"><path d="M 20.128906 77.722656 L 258.941406 -11.683594 L 374.644531 297.367188 L 135.828125 386.773438 Z M 20.128906 77.722656 " clip-rule="nonzero"/></clipPath><clipPath id="0ef159b44a"><path d="M 20.128906 77.722656 L 258.941406 -11.683594 L 374.644531 297.367188 L 135.828125 386.773438 Z M 20.128906 77.722656 " clip-rule="nonzero"/></clipPath><clipPath id="83de971212"><path d="M 20.128906 77.722656 L 258.941406 -11.683594 L 374.644531 297.367188 L 135.828125 386.773438 Z M 20.128906 77.722656 " clip-rule="nonzero"/></clipPath><clipPath id="cce8f77c5c"><path d="M 248 119 L 251 119 L 251 127 L 248 127 Z M 248 119 " clip-rule="nonzero"/></clipPath><clipPath id="056a5cf1ec"><path d="M 20.128906 77.722656 L 258.941406 -11.683594 L 374.644531 297.367188 L 135.828125 386.773438 Z M 20.128906 77.722656 " clip-rule="nonzero"/></clipPath><clipPath id="fbf90a04f9"><path d="M 20.128906 77.722656 L 258.941406 -11.683594 L 374.644531 297.367188 L 135.828125 386.773438 Z M 20.128906 77.722656 " clip-rule="nonzero"/></clipPath><clipPath id="5ecba2ae81"><path d="M 20.128906 77.722656 L 258.941406 -11.683594 L 374.644531 297.367188 L 135.828125 386.773438 Z M 20.128906 77.722656 " clip-rule="nonzero"/></clipPath><clipPath id="9eb75d6732"><path d="M 245 126 L 248 126 L 248 129 L 245 129 Z M 245 126 " clip-rule="nonzero"/></clipPath><clipPath id="63db4535bf"><path d="M 20.128906 77.722656 L 258.941406 -11.683594 L 374.644531 297.367188 L 135.828125 386.773438 Z M 20.128906 77.722656 " clip-rule="nonzero"/></clipPath><clipPath id="bb79f089d6"><path d="M 20.128906 77.722656 L 258.941406 -11.683594 L 374.644531 297.367188 L 135.828125 386.773438 Z M 20.128906 77.722656 " clip-rule="nonzero"/></clipPath><clipPath id="02c5481ee8"><path d="M 20.128906 77.722656 L 258.941406 -11.683594 L 374.644531 297.367188 L 135.828125 386.773438 Z M 20.128906 77.722656 " clip-rule="nonzero"/></clipPath></defs><g clip-path="url(#ec3c51149c)"><g clip-path="url(#c49ba5985c)"><g clip-path="url(#cef790358a)"><g clip-path="url(#6641a63699)"><path fill="#003317" d="M 206.488281 98.925781 C 210.289062 102.84375 213.292969 107.855469 216.214844 112.792969 C 223.128906 124.339844 229.648438 135.25 245.671875 131.535156 C 247.046875 131.25 248.292969 130.679688 249.410156 129.824219 C 250.523438 128.96875 251.398438 127.914062 252.03125 126.65625 C 257.285156 116.910156 251.597656 97.027344 249.316406 90.003906 C 233.042969 99.445312 216.59375 99.914062 206.488281 98.925781 Z M 206.488281 98.925781 " fill-opacity="1" fill-rule="nonzero"/></g></g></g></g><g clip-path="url(#7a3d06db22)"><g clip-path="url(#42da637053)"><g clip-path="url(#795020faf0)"><g clip-path="url(#add28a2f97)"><path fill="#ffd278" d="M 276.492188 150.097656 C 276.21875 150.082031 276 150.1875 275.84375 150.410156 L 256.519531 178.6875 C 255.980469 179.480469 255.28125 180.09375 254.421875 180.515625 C 253.566406 180.941406 252.65625 181.128906 251.699219 181.074219 C 250.804688 181.042969 249.972656 180.796875 249.207031 180.328125 C 248.445312 179.863281 247.84375 179.238281 247.402344 178.457031 C 242.691406 169.859375 237.117188 161.867188 230.683594 154.472656 C 230.5625 154.363281 230.417969 154.320312 230.253906 154.339844 C 230.035156 154.363281 229.855469 154.460938 229.714844 154.632812 L 216.917969 183.460938 C 216.890625 183.527344 216.855469 183.59375 216.820312 183.65625 C 216.363281 184.445312 215.75 185.085938 214.976562 185.574219 C 214.203125 186.058594 213.359375 186.335938 212.449219 186.402344 C 211.582031 186.476562 210.75 186.34375 209.953125 186.003906 C 209.152344 185.660156 208.480469 185.152344 207.933594 184.480469 L 190.550781 163.40625 C 190.390625 163.238281 190.199219 163.1875 189.976562 163.257812 C 189.742188 163.304688 189.574219 163.4375 189.480469 163.660156 L 185.214844 199.148438 C 189.996094 211.414062 193.425781 224.042969 195.515625 237.035156 C 195.820312 239.015625 196.074219 240.9375 196.292969 242.8125 C 196.304688 242.839844 196.3125 242.867188 196.320312 242.894531 C 197.289062 244.371094 198.382812 245.746094 199.601562 247.023438 C 200.820312 248.296875 202.148438 249.453125 203.578125 250.484375 C 205.007812 251.515625 206.523438 252.410156 208.117188 253.164062 C 209.710938 253.921875 211.359375 254.523438 213.066406 254.976562 C 223.175781 257.609375 234.996094 254.898438 248.203125 246.914062 L 248.34375 246.859375 C 268.566406 224.984375 280.3125 201.460938 286.648438 178.699219 C 285.082031 168.644531 281.796875 159.191406 276.792969 150.335938 C 276.734375 150.203125 276.632812 150.125 276.492188 150.097656 Z M 276.492188 150.097656 " fill-opacity="1" fill-rule="nonzero"/></g></g></g></g><g clip-path="url(#8e30388870)"><g clip-path="url(#15b96523a2)"><g clip-path="url(#817f4d485e)"><g clip-path="url(#d536d2d1b5)"><path fill="#006838" d="M 211.910156 259.175781 C 209.089844 258.433594 206.417969 257.332031 203.886719 255.878906 C 201.359375 254.421875 199.0625 252.660156 197.003906 250.59375 C 198.105469 269.335938 194.925781 282.40625 192.40625 289.515625 C 210.851562 279.421875 226.089844 268.320312 238.648438 256.644531 L 237.511719 257.066406 C 228.273438 260.507812 219.699219 261.226562 211.910156 259.175781 Z M 211.910156 259.175781 " fill-opacity="1" fill-rule="nonzero"/></g></g></g></g><g clip-path="url(#4b3105e097)"><g clip-path="url(#461296f1ec)"><g clip-path="url(#55bb79446c)"><g clip-path="url(#45df34e6c3)"><path fill="#00a651" d="M 192.167969 43.15625 C 144.75 57.277344 132.921875 85.207031 130.125 100.582031 C 129.9375 101.636719 129.863281 102.695312 129.902344 103.765625 C 129.941406 104.832031 130.09375 105.882812 130.363281 106.917969 C 130.628906 107.957031 131 108.949219 131.484375 109.90625 C 131.964844 110.859375 132.539062 111.753906 133.210938 112.585938 C 154.867188 139.605469 171.117188 165.746094 181.839844 190.757812 L 185.132812 163.015625 L 185.160156 162.84375 C 185.257812 162.378906 185.417969 161.933594 185.644531 161.511719 C 185.867188 161.089844 186.148438 160.710938 186.484375 160.367188 C 186.816406 160.027344 187.195312 159.742188 187.609375 159.511719 C 188.027344 159.277344 188.46875 159.109375 188.9375 159.007812 C 189.386719 158.890625 189.847656 158.839844 190.3125 158.851562 C 190.777344 158.867188 191.234375 158.949219 191.675781 159.09375 C 192.117188 159.242188 192.53125 159.449219 192.914062 159.714844 C 193.300781 159.980469 193.636719 160.292969 193.929688 160.65625 L 211.320312 181.746094 C 211.519531 181.984375 211.777344 182.089844 212.085938 182.0625 C 212.449219 182.03125 212.738281 181.871094 212.957031 181.582031 L 225.75 152.746094 C 225.78125 152.679688 225.816406 152.613281 225.855469 152.550781 C 226.265625 151.839844 226.8125 151.261719 227.503906 150.8125 C 228.191406 150.367188 228.945312 150.101562 229.761719 150.019531 C 230.542969 149.929688 231.296875 150.023438 232.03125 150.300781 C 232.765625 150.578125 233.394531 151.011719 233.921875 151.59375 C 240.566406 159.234375 246.324219 167.492188 251.195312 176.371094 C 251.351562 176.613281 251.578125 176.734375 251.867188 176.734375 C 252.292969 176.757812 252.625 176.59375 252.871094 176.246094 L 272.203125 147.929688 C 272.699219 147.203125 273.339844 146.640625 274.128906 146.246094 C 274.917969 145.855469 275.753906 145.679688 276.632812 145.71875 C 277.460938 145.746094 278.226562 145.96875 278.9375 146.398438 C 279.648438 146.824219 280.207031 147.398438 280.621094 148.117188 C 284.320312 154.667969 287.140625 161.574219 289.085938 168.84375 C 298.542969 124.65625 288.890625 84.617188 283.152344 66.695312 L 282.9375 66.128906 C 281.332031 61.035156 274.921875 50.589844 261.082031 43.730469 C 243.730469 35.105469 219.890625 34.90625 192.167969 43.15625 Z M 255.921875 128.703125 C 255.15625 130.199219 254.144531 131.511719 252.890625 132.628906 C 251.632812 133.75 250.214844 134.601562 248.640625 135.191406 C 248.007812 135.421875 247.363281 135.617188 246.707031 135.769531 C 227.582031 140.195312 219.574219 126.8125 212.503906 115.003906 C 207.855469 107.238281 203.46875 99.898438 196.441406 97.109375 C 196.179688 97.003906 195.945312 96.855469 195.742188 96.664062 C 195.539062 96.46875 195.378906 96.246094 195.261719 95.988281 C 195.144531 95.734375 195.078125 95.464844 195.0625 95.183594 C 195.050781 94.902344 195.085938 94.628906 195.179688 94.363281 C 195.269531 94.097656 195.40625 93.859375 195.589844 93.644531 C 195.773438 93.429688 195.988281 93.257812 196.238281 93.128906 C 196.488281 93 196.75 92.921875 197.03125 92.894531 C 197.3125 92.867188 197.585938 92.890625 197.855469 92.96875 C 198.140625 93.054688 224.757812 100.507812 249.371094 84.835938 C 249.957031 84.46875 250.574219 84.394531 251.230469 84.613281 C 251.886719 84.839844 252.339844 85.277344 252.585938 85.929688 C 253.011719 87.117188 263.234375 115.070312 255.910156 128.738281 Z M 255.921875 128.703125 " fill-opacity="1" fill-rule="nonzero"/></g></g></g></g><g clip-path="url(#eac02eb2b1)"><g clip-path="url(#9ee1e19605)"><g clip-path="url(#5589450304)"><g clip-path="url(#c6fcb90ca5)"><path fill="#ffffff" d="M 206.488281 98.925781 C 209.28125 101.945312 211.71875 105.226562 213.808594 108.769531 C 213.808594 108.769531 232.679688 110.136719 251.75 98.457031 C 250.886719 94.960938 249.976562 91.988281 249.332031 89.992188 C 233.042969 99.445312 216.59375 99.914062 206.488281 98.925781 Z M 206.488281 98.925781 " fill-opacity="1" fill-rule="nonzero"/></g></g></g></g><g clip-path="url(#0046081036)"><g clip-path="url(#8b29f93b0c)"><g clip-path="url(#aafd344140)"><g clip-path="url(#d10a609c4b)"><path fill="#990214" d="M 231.652344 111.628906 C 227.074219 113.34375 223.894531 117.394531 222.53125 122.46875 C 227.847656 129.472656 234.417969 134.121094 245.703125 131.503906 C 247.082031 131.21875 248.328125 130.648438 249.441406 129.792969 C 250.558594 128.9375 251.433594 127.882812 252.0625 126.625 C 252.699219 125.414062 253.171875 124.140625 253.476562 122.808594 C 248.730469 113.632812 239.472656 108.703125 231.652344 111.628906 Z M 231.652344 111.628906 " fill-opacity="1" fill-rule="nonzero"/></g></g></g></g><g clip-path="url(#8bb0fff6bb)"><g clip-path="url(#2ebd4f9fdd)"><g clip-path="url(#5727baf738)"><g clip-path="url(#4a1977dbc6)"><path fill="#be1e2d" d="M 235.628906 115.328125 C 231.050781 117.042969 227.871094 121.09375 226.507812 126.167969 C 227.136719 126.996094 227.785156 127.789062 228.453125 128.546875 C 232.800781 131.773438 238.214844 133.238281 245.703125 131.503906 C 247.082031 131.21875 248.328125 130.648438 249.441406 129.792969 C 250.558594 128.9375 251.433594 127.882812 252.0625 126.625 C 252.699219 125.414062 253.171875 124.140625 253.476562 122.808594 C 252.578125 121.058594 251.496094 119.4375 250.222656 117.9375 C 245.746094 114.679688 240.398438 113.542969 235.628906 115.328125 Z M 235.628906 115.328125 " fill-opacity="1" fill-rule="nonzero"/></g></g></g></g><g clip-path="url(#b21315483c)"><g clip-path="url(#4d1089d2b8)"><g clip-path="url(#0a7c43dd43)"><g clip-path="url(#bf15bdbbcb)"><path fill="#006838" d="M 150.761719 64.949219 C 136.757812 77.542969 131.800781 91.339844 130.089844 100.570312 C 129.898438 101.625 129.824219 102.683594 129.867188 103.75 C 129.90625 104.820312 130.058594 105.871094 130.324219 106.90625 C 130.589844 107.941406 130.964844 108.9375 131.445312 109.894531 C 131.925781 110.847656 132.503906 111.742188 133.175781 112.570312 C 154.832031 139.589844 171.082031 165.734375 181.804688 190.746094 L 185.132812 163.015625 L 185.160156 162.84375 C 185.257812 162.378906 185.417969 161.933594 185.644531 161.511719 C 185.867188 161.089844 186.148438 160.710938 186.484375 160.367188 C 186.816406 160.027344 187.195312 159.742188 187.609375 159.511719 C 188.027344 159.277344 188.46875 159.109375 188.9375 159.007812 C 189.386719 158.890625 189.847656 158.839844 190.3125 158.851562 C 190.777344 158.867188 191.234375 158.949219 191.675781 159.09375 C 192.117188 159.242188 192.53125 159.449219 192.914062 159.714844 C 193.300781 159.980469 193.636719 160.292969 193.929688 160.65625 L 211.320312 181.746094 C 211.519531 181.984375 211.777344 182.089844 212.085938 182.0625 C 212.449219 182.03125 212.738281 181.871094 212.957031 181.582031 C 200.757812 120.355469 150.761719 64.949219 150.761719 64.949219 Z M 150.761719 64.949219 " fill-opacity="1" fill-rule="nonzero"/></g></g></g></g><g clip-path="url(#f60c26ebf7)"><g clip-path="url(#99b2dc6f26)"><g clip-path="url(#078a4ddcf6)"><g clip-path="url(#57562ff7d2)"><path fill="#8affab" d="M 244.972656 38.453125 C 244.972656 38.453125 275.636719 82.308594 276.445312 145.738281 L 276.636719 145.730469 C 277.464844 145.757812 278.234375 145.980469 278.941406 146.410156 C 279.652344 146.835938 280.210938 147.410156 280.625 148.128906 C 284.320312 154.675781 287.144531 161.578125 289.085938 168.84375 C 298.542969 124.65625 288.890625 84.617188 283.152344 66.695312 L 282.9375 66.128906 C 281.332031 61.035156 274.921875 50.589844 261.082031 43.730469 C 255.957031 41.21875 250.585938 39.460938 244.972656 38.453125 Z M 244.972656 38.453125 " fill-opacity="1" fill-rule="nonzero"/></g></g></g></g><g clip-path="url(#3222ca0d63)"><g clip-path="url(#01ccdf2bff)"><g clip-path="url(#6cc9708e99)"><g clip-path="url(#270a91c3f4)"><path fill="#e2a840" d="M 212.429688 186.40625 C 211.566406 186.480469 210.734375 186.347656 209.933594 186.007812 C 209.136719 185.667969 208.464844 185.160156 207.917969 184.484375 L 190.535156 163.414062 C 190.375 163.246094 190.183594 163.195312 189.960938 163.265625 C 189.722656 163.3125 189.558594 163.445312 189.460938 163.664062 L 185.214844 199.148438 C 189.996094 211.414062 193.425781 224.042969 195.515625 237.035156 C 195.820312 239.015625 196.074219 240.9375 196.292969 242.8125 C 196.304688 242.839844 196.3125 242.867188 196.320312 242.894531 C 198.917969 246.882812 202.300781 250.03125 206.464844 252.332031 C 214.546875 221.773438 213.4375 196.242188 212.542969 186.398438 Z M 212.429688 186.40625 " fill-opacity="1" fill-rule="nonzero"/></g></g></g></g><g clip-path="url(#6164f51c3d)"><g clip-path="url(#ef6ad87ab5)"><g clip-path="url(#e9d1806664)"><g clip-path="url(#785f1df9e7)"><path fill="#ffeac5" d="M 286.671875 178.644531 C 285.105469 168.589844 281.820312 159.136719 276.816406 150.28125 C 276.730469 150.160156 276.609375 150.101562 276.460938 150.109375 C 276.339844 150.105469 276.21875 150.128906 276.109375 150.183594 C 274.097656 164.550781 265.007812 211.257812 228.605469 255.09375 C 234.742188 253.820312 241.304688 251.097656 248.257812 246.890625 L 248.402344 246.835938 C 268.601562 224.957031 280.351562 201.4375 286.671875 178.644531 Z M 286.671875 178.644531 " fill-opacity="1" fill-rule="nonzero"/></g></g></g></g><g clip-path="url(#07aabc8260)"><g clip-path="url(#bbea76796b)"><g clip-path="url(#62f0d4f4c2)"><g clip-path="url(#778c59692f)"><path fill="#008241" d="M 228.589844 255.097656 L 192.40625 289.515625 C 192.40625 289.515625 224.785156 274.515625 240.800781 255.765625 Z M 228.589844 255.097656 " fill-opacity="1" fill-rule="nonzero"/></g></g></g></g><g clip-path="url(#21f836f675)"><g clip-path="url(#27c8acf048)"><g clip-path="url(#acc2806eef)"><g clip-path="url(#fc5627c2ac)"><path fill="#005128" d="M 205.757812 256.871094 C 202.496094 255.257812 199.578125 253.164062 197.003906 250.59375 C 198.105469 269.335938 194.925781 282.40625 192.40625 289.515625 C 198.824219 279.441406 203.273438 268.558594 205.757812 256.871094 Z M 205.757812 256.871094 " fill-opacity="1" fill-rule="nonzero"/></g></g></g></g><g clip-path="url(#74f07f05c1)"><g clip-path="url(#541bf95fa4)"><g clip-path="url(#9e18a2dfc5)"><g clip-path="url(#081fe7f503)"><path fill="#003317" d="M 249.34375 84.847656 C 224.738281 100.542969 198.113281 93.066406 197.828125 92.980469 C 197.558594 92.902344 197.28125 92.875 197.003906 92.902344 C 196.722656 92.933594 196.457031 93.011719 196.210938 93.140625 C 195.960938 93.269531 195.742188 93.441406 195.5625 93.65625 C 195.378906 93.867188 195.242188 94.109375 195.148438 94.375 C 195.058594 94.640625 195.019531 94.914062 195.035156 95.195312 C 195.050781 95.476562 195.113281 95.742188 195.234375 96 C 195.351562 96.253906 195.511719 96.480469 195.714844 96.671875 C 195.917969 96.867188 196.152344 97.015625 196.410156 97.121094 C 203.441406 99.910156 207.824219 107.25 212.476562 115.015625 C 219.539062 126.824219 227.550781 140.203125 246.679688 135.78125 C 247.332031 135.628906 247.976562 135.433594 248.609375 135.199219 C 250.1875 134.613281 251.605469 133.757812 252.859375 132.640625 C 254.117188 131.519531 255.128906 130.210938 255.894531 128.710938 C 263.230469 115.074219 253.003906 87.121094 252.566406 85.933594 C 252.324219 85.28125 251.871094 84.84375 251.214844 84.621094 C 250.554688 84.394531 249.929688 84.472656 249.34375 84.847656 Z M 252.035156 126.636719 C 251.402344 127.890625 250.53125 128.949219 249.414062 129.804688 C 248.296875 130.660156 247.050781 131.230469 245.675781 131.511719 C 229.652344 135.230469 223.128906 124.320312 216.21875 112.769531 C 213.28125 107.859375 210.277344 102.847656 206.496094 98.902344 C 216.582031 99.898438 233.046875 99.421875 249.332031 89.960938 C 251.613281 97.003906 257.296875 116.871094 252.046875 126.632812 Z M 252.035156 126.636719 " fill-opacity="1" fill-rule="nonzero"/></g></g></g></g><g clip-path="url(#d28bc01261)"><g clip-path="url(#c72d5b9fd7)"><g clip-path="url(#1492276fd0)"><g clip-path="url(#38a75117c8)"><path fill="#003317" d="M 181.804688 202.652344 C 190.800781 226.816406 193.144531 246.390625 192.769531 261.082031 C 180.085938 264.085938 168.09375 268.835938 156.796875 275.339844 C 148.140625 280.207031 140 285.816406 132.371094 292.171875 C 124.476562 298.761719 117.316406 305.96875 109.769531 312.898438 C 108.589844 313.988281 109.90625 315.980469 111.273438 314.980469 C 123.921875 305.707031 137.136719 297.175781 150.25 288.574219 C 162.144531 280.769531 174.925781 274.105469 188.554688 269.910156 C 189.777344 269.539062 191.03125 269.191406 192.300781 268.859375 C 191.171875 280.445312 188.457031 288 187.011719 291.296875 C 186.785156 291.851562 186.726562 292.421875 186.839844 293.007812 C 186.949219 293.59375 187.210938 294.105469 187.625 294.535156 C 188.035156 294.96875 188.53125 295.253906 189.109375 295.394531 C 189.691406 295.535156 190.261719 295.507812 190.824219 295.308594 C 190.949219 295.273438 191.070312 295.226562 191.1875 295.175781 C 206.128906 287.347656 220.089844 278.050781 233.070312 267.277344 C 244.074219 269.6875 254.058594 274.90625 260.964844 284.113281 C 279.136719 308.4375 248.105469 330.164062 229.632812 340.679688 C 216.183594 348.289062 201.964844 353.976562 186.980469 357.742188 C 175.828125 360.566406 160.519531 364.210938 150.59375 356.214844 C 140.671875 348.21875 141.925781 332.3125 148.15625 322.542969 C 156.632812 309.253906 172.011719 303.234375 185.292969 296.039062 C 187.714844 294.730469 185.492188 291.09375 183.097656 291.894531 C 168.902344 296.671875 153.617188 303.832031 144.289062 316.03125 C 136.855469 325.695312 133.332031 340.273438 138.175781 351.820312 C 143.554688 364.71875 156.886719 369.175781 169.941406 368.386719 C 186.085938 367.414062 202.664062 361.757812 217.332031 355.25 C 231.835938 348.808594 246.421875 340.605469 258.0625 329.691406 C 267.292969 321.046875 274.886719 309.433594 273.503906 296.226562 C 272.027344 282.101562 260.800781 271.253906 248.621094 265.28125 C 245.65625 263.835938 242.589844 262.632812 239.433594 261.679688 C 243.4375 258.019531 247.242188 254.257812 250.84375 250.390625 C 250.878906 250.359375 250.910156 250.328125 250.9375 250.292969 C 257.164062 243.597656 262.835938 236.460938 267.953125 228.882812 C 278.042969 213.890625 285.523438 197.6875 290.394531 180.277344 C 290.652344 180.035156 290.84375 179.746094 290.960938 179.410156 C 291.078125 179.074219 291.109375 178.726562 291.058594 178.375 L 291.007812 178.027344 C 292.882812 171.023438 294.328125 163.933594 295.347656 156.757812 C 300.992188 116.722656 292.734375 82.308594 287.335938 65.34375 L 287.148438 64.765625 C 284.882812 57.671875 277.226562 46.835938 263.054688 39.820312 C 244.40625 30.589844 220.128906 30.285156 190.921875 38.980469 C 168.96875 45.511719 152.035156 55.699219 140.578125 69.261719 C 130.890625 80.726562 127.191406 92.207031 125.792969 99.820312 C 125.546875 101.179688 125.449219 102.550781 125.5 103.933594 C 125.550781 105.316406 125.746094 106.679688 126.089844 108.019531 C 126.433594 109.359375 126.914062 110.648438 127.535156 111.882812 C 128.152344 113.121094 128.898438 114.277344 129.765625 115.351562 C 155.683594 147.675781 171.441406 175.9375 180.730469 199.84375 M 192.40625 289.515625 C 194.925781 282.40625 198.105469 269.335938 197.003906 250.59375 C 199.0625 252.660156 201.359375 254.421875 203.886719 255.878906 C 206.417969 257.332031 209.089844 258.433594 211.910156 259.175781 C 219.699219 261.226562 228.273438 260.507812 237.523438 257.042969 L 238.65625 256.621094 C 226.082031 268.296875 210.851562 279.421875 192.40625 289.515625 Z M 286.671875 178.644531 C 280.351562 201.4375 268.601562 224.964844 248.375 246.800781 L 248.226562 246.859375 C 235.027344 254.839844 223.191406 257.527344 213.089844 254.921875 C 211.386719 254.46875 209.734375 253.867188 208.140625 253.109375 C 206.546875 252.355469 205.035156 251.460938 203.601562 250.429688 C 202.171875 249.398438 200.847656 248.242188 199.628906 246.96875 C 198.40625 245.691406 197.3125 244.316406 196.347656 242.839844 C 196.339844 242.8125 196.328125 242.785156 196.316406 242.757812 C 196.105469 240.894531 195.847656 238.960938 195.539062 236.980469 C 193.453125 223.988281 190.019531 211.359375 185.242188 199.09375 L 189.488281 163.609375 C 189.582031 163.390625 189.75 163.257812 189.984375 163.210938 C 190.207031 163.140625 190.398438 163.191406 190.558594 163.359375 L 207.941406 184.429688 C 208.488281 185.105469 209.160156 185.613281 209.960938 185.953125 C 210.757812 186.292969 211.589844 186.425781 212.457031 186.351562 C 213.367188 186.285156 214.210938 186.011719 214.984375 185.523438 C 215.757812 185.039062 216.371094 184.398438 216.828125 183.605469 C 216.863281 183.542969 216.898438 183.480469 216.925781 183.414062 L 229.722656 154.585938 C 229.863281 154.410156 230.042969 154.3125 230.261719 154.292969 C 230.425781 154.273438 230.570312 154.316406 230.691406 154.421875 C 237.125 161.816406 242.699219 169.8125 247.410156 178.40625 C 247.851562 179.191406 248.453125 179.8125 249.21875 180.28125 C 249.980469 180.746094 250.8125 180.996094 251.707031 181.027344 C 252.664062 181.082031 253.574219 180.894531 254.429688 180.46875 C 255.289062 180.042969 255.988281 179.433594 256.527344 178.640625 L 275.851562 150.363281 C 276.007812 150.136719 276.226562 150.035156 276.5 150.050781 C 276.648438 150.042969 276.765625 150.101562 276.855469 150.222656 C 281.851562 159.097656 285.125 168.574219 286.671875 178.644531 Z M 282.964844 66.128906 L 283.179688 66.699219 C 288.890625 84.617188 298.542969 124.652344 289.085938 168.84375 C 287.144531 161.574219 284.324219 154.664062 280.621094 148.117188 C 280.207031 147.398438 279.648438 146.824219 278.9375 146.398438 C 278.226562 145.96875 277.460938 145.746094 276.632812 145.71875 C 275.753906 145.679688 274.917969 145.855469 274.128906 146.246094 C 273.339844 146.640625 272.699219 147.203125 272.203125 147.929688 L 252.871094 176.214844 C 252.625 176.5625 252.292969 176.722656 251.867188 176.699219 C 251.578125 176.703125 251.351562 176.582031 251.195312 176.335938 C 246.324219 167.457031 240.566406 159.199219 233.921875 151.5625 C 233.394531 150.976562 232.765625 150.546875 232.03125 150.269531 C 231.300781 149.992188 230.542969 149.894531 229.761719 149.984375 C 228.945312 150.070312 228.191406 150.332031 227.503906 150.78125 C 226.816406 151.226562 226.265625 151.804688 225.855469 152.519531 C 225.816406 152.582031 225.78125 152.644531 225.753906 152.710938 L 212.957031 181.546875 C 212.738281 181.839844 212.449219 182 212.085938 182.027344 C 211.777344 182.054688 211.523438 181.949219 211.320312 181.710938 L 193.9375 160.640625 C 193.644531 160.277344 193.308594 159.964844 192.921875 159.699219 C 192.539062 159.433594 192.125 159.226562 191.683594 159.078125 C 191.238281 158.933594 190.785156 158.851562 190.320312 158.835938 C 189.851562 158.824219 189.394531 158.875 188.941406 158.992188 C 188.476562 159.09375 188.035156 159.261719 187.617188 159.496094 C 187.199219 159.726562 186.824219 160.011719 186.488281 160.351562 C 186.15625 160.695312 185.875 161.074219 185.648438 161.496094 C 185.425781 161.917969 185.265625 162.363281 185.167969 162.828125 L 185.140625 163 L 181.820312 190.753906 C 171.097656 165.742188 154.847656 139.597656 133.191406 112.578125 C 132.519531 111.75 131.945312 110.859375 131.46875 109.910156 C 130.988281 108.957031 130.617188 107.964844 130.351562 106.933594 C 130.082031 105.902344 129.929688 104.851562 129.886719 103.789062 C 129.847656 102.722656 129.917969 101.664062 130.105469 100.617188 C 132.929688 85.226562 144.757812 57.300781 192.175781 43.179688 C 219.898438 34.929688 243.738281 35.125 261.117188 43.753906 C 274.949219 50.59375 281.359375 61.039062 282.964844 66.128906 Z M 282.964844 66.128906 " fill-opacity="1" fill-rule="nonzero"/></g></g></g></g><g clip-path="url(#e13f0086ee)"><g clip-path="url(#2c02085523)"><g clip-path="url(#f52e99b407)"><g clip-path="url(#cb77a9e967)"><path fill="#003317" d="M 219.265625 15.09375 C 221.484375 15.105469 223.609375 14.070312 225.789062 13.664062 C 228.074219 13.230469 230.378906 13.046875 232.707031 13.113281 C 237.308594 13.296875 241.789062 14.152344 246.140625 15.675781 C 254.175781 18.585938 261.371094 25.347656 267.089844 31.546875 C 267.976562 32.511719 269.933594 32.136719 269.714844 30.5625 C 268.113281 19.121094 259.582031 11.523438 248.996094 8 C 246.285156 7.050781 243.496094 6.503906 240.628906 6.347656 C 237.765625 6.195312 234.933594 6.445312 232.140625 7.097656 C 227.785156 8.082031 221.128906 9.710938 218.453125 13.5625 C 218.207031 13.886719 218.179688 14.230469 218.371094 14.589844 C 218.5625 14.949219 218.859375 15.117188 219.265625 15.09375 Z M 219.265625 15.09375 " fill-opacity="1" fill-rule="nonzero"/></g></g></g></g><g clip-path="url(#b3e8d602cd)"><g clip-path="url(#c46124121b)"><g clip-path="url(#82b381219d)"><g clip-path="url(#7a2c6783d8)"><path fill="#003317" d="M 137.28125 61.363281 C 138.09375 57.628906 138.621094 54.054688 140.363281 50.574219 C 142.1875 47.054688 144.578125 43.976562 147.53125 41.335938 C 153.480469 35.910156 162.261719 33.117188 170.128906 32.070312 C 170.285156 32.046875 170.421875 31.980469 170.535156 31.867188 C 170.652344 31.757812 170.722656 31.621094 170.75 31.464844 C 170.777344 31.308594 170.757812 31.15625 170.691406 31.011719 C 170.621094 30.867188 170.519531 30.757812 170.378906 30.679688 C 160.738281 26 150.277344 29.015625 142.738281 36.230469 C 136.542969 42.167969 132.871094 53.113281 135.300781 61.527344 C 135.613281 62.585938 137.078125 62.296875 137.28125 61.363281 Z M 137.28125 61.363281 " fill-opacity="1" fill-rule="nonzero"/></g></g></g></g><g clip-path="url(#c90a8e1fd6)"><g clip-path="url(#864b91ecdd)"><g clip-path="url(#0b3ab04a3e)"><g clip-path="url(#7e90ace7d7)"><path fill="#003317" d="M 250.039062 56.039062 C 240.515625 55.105469 233.304688 64.386719 232.996094 64.78125 C 232.824219 65.011719 232.703125 65.265625 232.628906 65.546875 C 232.558594 65.828125 232.542969 66.109375 232.582031 66.394531 C 232.621094 66.679688 232.710938 66.949219 232.859375 67.199219 C 233.003906 67.449219 233.191406 67.660156 233.417969 67.835938 C 233.648438 68.011719 233.902344 68.136719 234.179688 68.214844 C 234.460938 68.289062 234.742188 68.308594 235.027344 68.269531 C 235.3125 68.234375 235.582031 68.144531 235.832031 68.003906 C 236.085938 67.859375 236.296875 67.675781 236.476562 67.449219 C 236.535156 67.367188 242.484375 59.699219 249.613281 60.402344 C 254.5625 60.890625 259.140625 65.332031 263.222656 73.605469 C 263.34375 73.851562 263.5 74.0625 263.699219 74.246094 C 263.898438 74.429688 264.125 74.574219 264.375 74.675781 C 264.628906 74.773438 264.890625 74.828125 265.160156 74.828125 C 265.429688 74.832031 265.695312 74.789062 265.949219 74.695312 L 266.15625 74.613281 C 266.421875 74.484375 266.648438 74.3125 266.839844 74.089844 C 267.035156 73.867188 267.175781 73.617188 267.269531 73.339844 C 267.359375 73.0625 267.394531 72.777344 267.375 72.484375 C 267.351562 72.191406 267.273438 71.914062 267.140625 71.652344 C 262.351562 61.941406 256.597656 56.6875 250.039062 56.039062 Z M 250.039062 56.039062 " fill-opacity="1" fill-rule="nonzero"/></g></g></g></g><g clip-path="url(#47e3a237a9)"><g clip-path="url(#82c0dc1c9e)"><g clip-path="url(#0ef159b44a)"><g clip-path="url(#83de971212)"><path fill="#003317" d="M 187.785156 70.203125 C 196.148438 67.214844 206.023438 74.308594 206.117188 74.363281 C 206.351562 74.550781 206.613281 74.6875 206.902344 74.765625 C 207.191406 74.847656 207.484375 74.867188 207.78125 74.824219 C 208.078125 74.785156 208.355469 74.6875 208.609375 74.53125 C 208.867188 74.378906 209.082031 74.179688 209.257812 73.9375 C 209.433594 73.691406 209.554688 73.425781 209.621094 73.132812 C 209.683594 72.839844 209.691406 72.542969 209.632812 72.25 C 209.578125 71.953125 209.46875 71.683594 209.300781 71.433594 C 209.132812 71.183594 208.925781 70.976562 208.671875 70.8125 C 208.199219 70.464844 196.855469 62.269531 186.300781 66.046875 C 179.839844 68.367188 175.226562 74.523438 172.671875 84.390625 C 172.59375 84.671875 172.570312 84.960938 172.609375 85.25 C 172.644531 85.542969 172.734375 85.816406 172.882812 86.070312 C 173.027344 86.324219 173.21875 86.539062 173.453125 86.71875 C 173.683594 86.898438 173.945312 87.023438 174.226562 87.097656 C 174.511719 87.171875 174.796875 87.191406 175.089844 87.148438 C 175.378906 87.109375 175.648438 87.011719 175.902344 86.863281 C 176.152344 86.710938 176.367188 86.519531 176.542969 86.28125 C 176.714844 86.046875 176.839844 85.785156 176.90625 85.5 C 179.066406 77.214844 182.65625 72.085938 187.589844 70.238281 Z M 187.785156 70.203125 " fill-opacity="1" fill-rule="nonzero"/></g></g></g></g><g clip-path="url(#cce8f77c5c)"><g clip-path="url(#056a5cf1ec)"><g clip-path="url(#fbf90a04f9)"><g clip-path="url(#5ecba2ae81)"><path fill="#ea5467" d="M 248.703125 119.882812 C 248.417969 119.675781 247.96875 120.03125 248.226562 120.339844 C 248.640625 120.789062 248.929688 121.308594 249.09375 121.898438 C 249.261719 122.488281 249.28125 123.085938 249.164062 123.683594 C 249.019531 124.542969 248.648438 125.355469 248.523438 126.21875 C 248.515625 126.273438 248.523438 126.324219 248.542969 126.378906 C 248.5625 126.429688 248.59375 126.472656 248.636719 126.507812 C 248.675781 126.542969 248.726562 126.566406 248.78125 126.574219 C 248.832031 126.585938 248.886719 126.582031 248.9375 126.5625 C 250.203125 126.21875 250.839844 124.808594 250.78125 123.578125 C 250.734375 122.835938 250.53125 122.140625 250.167969 121.492188 C 249.800781 120.84375 249.3125 120.304688 248.703125 119.882812 Z M 248.703125 119.882812 " fill-opacity="1" fill-rule="nonzero"/></g></g></g></g><g clip-path="url(#9eb75d6732)"><g clip-path="url(#63db4535bf)"><g clip-path="url(#bb79f089d6)"><g clip-path="url(#02c5481ee8)"><path fill="#ea5467" d="M 246.257812 126.925781 C 246.011719 127.039062 245.835938 127.222656 245.730469 127.476562 C 245.628906 127.730469 245.625 127.984375 245.71875 128.238281 C 245.816406 128.492188 245.984375 128.683594 246.230469 128.804688 C 246.472656 128.929688 246.726562 128.953125 246.988281 128.875 C 247.234375 128.761719 247.410156 128.578125 247.511719 128.324219 C 247.617188 128.074219 247.621094 127.816406 247.523438 127.5625 C 247.429688 127.308594 247.257812 127.117188 247.015625 126.996094 C 246.773438 126.871094 246.519531 126.847656 246.257812 126.925781 Z M 246.257812 126.925781 " fill-opacity="1" fill-rule="nonzero"/></g></g></g></g></svg>